# xmcd
#
# Track frame offsets: 
#        150
#        11704
#        24408
#        37252
#        54251
#        65438
#        80360
#
# Disc length: 1310 seconds
#
# Revision: 0
# Processed by: cddbd v1.5.2PL0 Copyright (c) Steve Scherf et al.
# Submitted via: ExactAudioCopy v1.0b1
#
DISCID=51051c07
DTITLE=Miss Marcy and her Texas Sugar Daddy's - Original Texas Music
DYEAR=2010
DGENRE=Blues
TTITLE0=O.C Blues
TTITLE1=Move On
TTITLE2=Restraining Order
TTITLE3=You Got My Man
TTITLE4=One More Man
TTITLE5=Sugar Daddy
TTITLE6=Stand by Your Man
EXTD=
EXTT0=
EXTT1=
EXTT2=
EXTT3=
EXTT4=
EXTT5=
EXTT6=
PLAYORDER=
